<?xml version="1.0" encoding="UTF-8"?>
<svg width="20px" height="15px" viewBox="0 0 20 15" version="1.1" xmlns="http://www.w3.org/2000/svg" xmlns:xlink="http://www.w3.org/1999/xlink">
    <!-- Generator: Sketch 51.3 (57544) - http://www.bohemiancoding.com/sketch -->
    <title>Shape</title>
    <desc>Created with Sketch.</desc>
    <defs></defs>
    <g id="Page-1" stroke="none" stroke-width="1" fill="none" fill-rule="evenodd">
        <g id="首页-copy-6" transform="translate(-220.000000, -421.000000)" fill="#FFFFFF" fill-rule="nonzero">
            <g id="按钮1" transform="translate(180.000000, 405.000000)">
                <g id="下载" transform="translate(40.000000, 16.000000)">
                    <path d="M8.59519947,9.76493013 L7.21820532,9.76493013 C6.83160606,9.76495928 6.51822791,10.0990984 6.51825408,10.5112508 C6.51826721,10.7091678 6.5920258,10.8989751 6.72330421,11.0389164 L9.7003031,14.2126866 C9.72540311,14.2394456 9.75200316,14.2638593 9.77980307,14.2857143 L3.40700287,14.2857143 C1.46460452,14.2857143 0,12.525057 0,10.1893443 C0,8.21194612 1.03890059,6.63027867 2.56689864,6.20746925 C2.95189875,4.09019949 4.60049289,2.5385962 6.54010393,2.5385962 L6.54010373,2.5385962 C7.11311215,2.53882054 7.67883171,2.6755569 8.19590691,2.93880937 C9.17140743,1.11301542 10.8979048,0 12.808308,0 C15.7854116,0 18.2087051,2.7473335 18.2087051,6.12622349 C18.2087051,6.29861177 18.2023051,6.47100004 18.1900052,6.63965645 C19.2990058,7.36694809 20,8.71918907 20,10.1893332 C20,12.448609 18.3806935,14.2857031 16.3894977,14.2857031 L10.6106945,14.2857031 C10.6384945,14.2638481 10.6649944,14.2394345 10.6901944,14.2126754 L13.6671933,11.0389053 C13.9405743,10.7474838 13.9405966,10.274973 13.6672438,9.9835223 C13.5359539,9.84354054 13.3578752,9.76490359 13.1721936,9.76491894 L11.6951967,9.76491894 L11.6951967,6.77984843 C11.6951967,6.36769609 11.3817963,6.03358081 10.995197,6.03358081 L9.29520263,6.03358081 C8.90860338,6.03358083 8.59520298,6.36769609 8.59520298,6.77984843 L8.59520298,9.76491894 L8.59519947,9.76493013 Z" id="Shape"></path>
                </g>
            </g>
        </g>
    </g>
</svg>