<?xml version="1.0" encoding="UTF-8"?>
<svg width="38px" height="38px" viewBox="0 0 38 38" version="1.1" xmlns="http://www.w3.org/2000/svg" xmlns:xlink="http://www.w3.org/1999/xlink">
    <!-- Generator: Sketch 51.3 (57544) - http://www.bohemiancoding.com/sketch -->
    <title>Group 8</title>
    <desc>Created with Sketch.</desc>
    <defs></defs>
    <g id="Page-1" stroke="none" stroke-width="1" fill="none" fill-rule="evenodd">
        <g id="首页-copy-6" transform="translate(-831.000000, -1027.000000)" fill="#6462E5" fill-rule="nonzero">
            <g id="customizabiliyu" transform="translate(726.666667, 821.000000)">
                <g id="Group-13">
                    <g id="Group-8" transform="translate(104.000000, 206.000000)">
                        <path d="M37.6415808,16.6913527 L35.4115597,16.6913527 C35.0736778,13.9882972 33.9924564,11.4879739 32.2354697,9.32554134 L33.7897242,7.77128692 C34.127606,7.29825248 33.9248767,6.69006693 33.4518423,6.3521836 L32.032739,4.93308029 C31.6948572,4.59519844 30.951519,4.32489474 30.6136357,4.59519844 L29.0593813,6.14945287 C26.8293602,4.59519844 24.3290369,3.44639735 21.6935699,3.17609513 L21.6935699,0.810922937 C21.6935699,0.202737386 21.0853843,5.1738142e-06 20.4096177,5.1738142e-06 L18.3823288,5.1738142e-06 C17.7741432,5.1738142e-06 17.0983766,0.337887021 17.0983766,0.810922937 L17.0983766,3.31124624 C14.665627,3.64912809 12.0977374,4.73034955 10.0704522,6.35218138 L8.31346557,4.59519474 C7.84043113,4.12216031 7.23224558,4.46004215 6.89436225,4.93307659 L5.54283634,6.35217991 C5.0698019,6.62248546 4.73191858,7.29824878 5.20495449,7.77128322 L6.89436373,9.46069245 C5.3401093,11.4879813 4.39404043,14.0558894 3.92100599,16.556209 L1.21795047,16.556209 C0.609764924,16.556209 0.407032711,17.1643946 0.407032711,17.8401612 L0.407032711,19.8674501 C0.407032711,20.4756356 0.744914558,21.1514023 1.21795047,21.1514023 L3.92100599,21.1514023 C4.39404043,23.8544578 5.3401093,26.2196337 6.89436373,28.2469189 L5.00222598,30.1390566 C4.66434413,30.4769385 4.86707339,31.2202766 5.34010783,31.5581599 L6.89436225,32.9772632 C7.2322441,33.3151451 7.97558224,33.5854488 8.31346557,33.3151451 L10.0704522,31.5581584 C12.0977411,33.1124129 14.6656492,34.261214 17.3011162,34.5315162 L17.3011162,37.0318395 C17.3011162,37.640025 17.9093017,37.8427573 18.5850684,37.8427573 L20.6123573,37.8427573 C21.2205428,37.8427573 21.8963095,37.5048754 21.8963095,37.0318395 L21.8963095,34.6666673 C23.1802617,34.5315147 24.599365,34.1936329 25.8157324,33.7205984 C26.4239179,33.3827166 26.7618013,32.7745295 26.4239179,32.166344 C26.0860361,31.5581584 25.4778491,31.2202751 24.8696635,31.5581584 C23.3154091,32.166344 21.5584224,32.5042273 19.8014321,32.5042273 C12.4356207,32.436651 6.42132042,26.489927 6.42132042,19.0565235 C6.28616783,11.4879724 12.2328811,5.54126436 19.6662847,5.54126436 C27.0996883,5.54126436 33.0463964,11.4879724 33.0463964,18.921376 C33.0463964,20.6783627 32.7085145,22.3677682 31.9651764,24.1247549 C31.6272945,24.7329404 31.9651764,25.5438582 32.5733619,25.6790093 C33.1815475,25.8141619 33.9924652,25.6790093 34.1276164,25.0708237 C34.6006508,23.7868715 35.0736852,22.5705004 35.2088363,21.1514008 L37.4388574,21.1514008 C38.047043,21.1514008 38.2497752,20.5432153 38.2497752,19.8674486 L38.2497752,17.8401597 C38.3849278,17.3671253 38.1146226,16.6913624 37.6415896,16.6913624" id="Shape"></path>
                        <path d="M33.5871213,29.7335774 L26.0185703,22.2326186 L25.8834177,22.2326186 C26.4916032,21.1513986 26.8294866,19.8674464 26.8294866,18.6510716 C26.8294866,14.5965013 23.5182455,11.1501128 19.5988226,11.1501128 L18.1797193,11.1501128 C17.5715337,11.1501128 16.8957671,11.6231472 16.8957671,12.434065 C16.8957671,13.0422505 17.3688015,13.7180172 18.1797193,13.7180172 L19.5988226,13.7180172 C22.0991459,13.7180172 24.4643144,16.0831894 24.4643144,18.8538038 C24.4643144,21.4892819 22.2342933,23.854443 19.5988226,23.854443 C18.3148704,23.854443 16.9633445,23.2462575 15.8145471,22.3001886 C14.7333271,21.3541197 14.0575604,20.1377449 14.0575604,18.8537964 C14.0575604,18.2456109 13.584526,17.5698442 12.7736082,17.5698442 C12.1654227,17.5698442 11.489656,18.0428787 11.489656,18.8537964 C11.489656,22.7732193 15.2739315,26.3547552 19.3285019,26.3547552 C20.4097219,26.3547552 21.558523,26.0168734 22.4370144,25.5438375 C22.4370144,25.5438375 22.4370144,25.6789901 22.572167,25.6789901 L30.2758654,33.1123937 C30.411018,33.2475462 30.7488999,33.4502755 30.884051,33.5854281 C31.6949688,33.9233099 32.7761887,33.9233099 33.3843743,33.1123937 C33.9925598,32.5042081 34.1952921,31.4229844 33.8574087,30.6120704 C33.8574087,30.1390359 33.7222561,30.0038848 33.5871032,29.7335789" id="Shape"></path>
                    </g>
                </g>
            </g>
        </g>
    </g>
</svg>