<?xml version="1.0" encoding="UTF-8"?>
<svg width="35px" height="34px" viewBox="0 0 35 34" version="1.1" xmlns="http://www.w3.org/2000/svg" xmlns:xlink="http://www.w3.org/1999/xlink">
    <!-- Generator: Sketch 51.3 (57544) - http://www.bohemiancoding.com/sketch -->
    <title>Shape</title>
    <desc>Created with Sketch.</desc>
    <defs></defs>
    <g id="Page-1" stroke="none" stroke-width="1" fill="none" fill-rule="evenodd">
        <g id="首页-copy-6" transform="translate(-1111.000000, -1029.000000)" fill="#3A9E63" fill-rule="nonzero">
            <g id="accuracy" transform="translate(1004.000000, 821.000000)">
                <g id="Group-14">
                    <path d="M124.946832,242 C115.540154,242 107.946832,234.406678 107.946832,225 C107.946832,215.593322 115.540154,208 124.946832,208 C134.353509,208 141.946832,215.593322 141.946832,225 C141.946832,234.406678 134.353509,242 124.946832,242 Z M124.946832,210.266678 C116.786832,210.266678 110.213509,216.84 110.213509,225 C110.213509,233.16 116.786832,239.733322 124.946832,239.733322 C133.106832,239.733322 139.680154,233.16 139.680154,225 C139.680154,216.84 133.106832,210.266678 124.946832,210.266678 Z M124.946832,235.2 C119.280154,235.2 114.746832,230.666678 114.746832,225 C114.746832,219.333322 119.280154,214.8 124.946832,214.8 C130.613509,214.8 135.146832,219.333322 135.146832,225 C135.146832,230.666678 130.613509,235.2 124.946832,235.2 Z M124.946832,217.066678 C120.526832,217.066678 117.013509,220.58 117.013509,225 C117.013509,229.42 120.526832,232.933322 124.946832,232.933322 C129.366832,232.933322 132.880154,229.42 132.880154,225 C132.880154,220.58 129.366832,217.066678 124.946832,217.066678 Z M123.700164,227.38 C123.473497,227.38 123.133496,227.266667 122.906832,227.04 C122.453499,226.586668 122.453499,225.906668 122.906832,225.453332 L138.320154,208.906654 C138.773486,208.453322 139.453486,208.453322 139.906822,208.906654 C140.360154,209.359987 140.360154,210.039987 139.906822,210.493322 L124.493499,227.04 C124.266833,227.266667 123.926832,227.38 123.700167,227.38 L123.700164,227.38 Z" id="Shape"></path>
                </g>
            </g>
        </g>
    </g>
</svg>