<?xml version="1.0" encoding="UTF-8"?>
<svg width="38px" height="38px" viewBox="0 0 38 38" version="1.1" xmlns="http://www.w3.org/2000/svg" xmlns:xlink="http://www.w3.org/1999/xlink">
    <!-- Generator: Sketch 51.3 (57544) - http://www.bohemiancoding.com/sketch -->
    <title>Shape</title>
    <desc>Created with Sketch.</desc>
    <defs></defs>
    <g id="Page-1" stroke="none" stroke-width="1" fill="none" fill-rule="evenodd">
        <g id="首页-copy-6" transform="translate(-563.000000, -1027.000000)" fill-rule="nonzero" stroke="#ECA151" stroke-width="2">
            <g id="automacity" transform="translate(459.333333, 821.000000)">
                <g id="机器人" transform="translate(104.666667, 207.000000)">
                    <path d="M18,36 C8.0589375,36 0,27.9410625 0,18 C0,8.0589375 8.0589375,0 18,0 C27.9410625,0 36,8.0589375 36,18 C36,27.9410625 27.9410625,36 18,36 Z M18.6255,12.7558125 L18.6255,11.4316875 C19.0311223,11.1987175 19.2805454,10.7660109 19.2788438,10.29825 C19.2788438,9.58106247 18.7079063,8.99999997 18.0036563,8.99999997 C17.2991251,8.99999997 16.7281876,9.58106247 16.7281876,10.2979687 C16.7281876,10.7817187 16.9880626,11.2035937 17.3733751,11.4269062 L17.3733751,12.7558125 L12.8362501,12.7558125 C10.7184376,12.7580625 9.00225006,14.5049062 9.00000006,16.6604062 L9.00000006,21.9664687 C9.00000006,24.1236562 10.7170313,25.87275 12.8362501,25.875 L23.1637501,25.875 C25.2829688,25.87275 27.0000001,24.123375 27.0000001,21.9664687 L27.0000001,16.6604062 C26.9977501,14.5049062 25.2815626,12.7580625 23.1637501,12.7558125 L18.6255001,12.7558125 Z M14.6061562,17.80875 C15.4229062,17.809875 16.0846875,18.48375 16.0858125,19.3148437 C16.0858125,20.1467812 15.4231875,20.8209375 14.6061562,20.8209375 C13.7888437,20.8209375 13.1262187,20.1467812 13.1262187,19.3148437 C13.1262187,18.4831875 13.7888437,17.80875 14.6061562,17.80875 Z M21.3859687,17.80875 C22.2027187,17.809875 22.8645,18.48375 22.865625,19.3148437 C22.865625,19.9240312 22.5050625,20.4733125 21.952125,20.7061875 C21.3986003,20.9392176 20.7588585,20.8097965 20.3394374,20.3799375 C19.9155269,19.945329 19.7896148,19.3007497 20.0188124,18.7385626 C20.2477499,18.1757813 20.7874687,17.8087501 21.3856874,17.8087501 L21.3859687,17.80875 Z" id="Shape"></path>
                </g>
            </g>
        </g>
    </g>
</svg>