<?xml version="1.0" encoding="UTF-8"?>
<svg width="30px" height="32px" viewBox="0 0 30 32" version="1.1" xmlns="http://www.w3.org/2000/svg" xmlns:xlink="http://www.w3.org/1999/xlink">
    <!-- Generator: Sketch 51.3 (57544) - http://www.bohemiancoding.com/sketch -->
    <title>拼图</title>
    <desc>Created with Sketch.</desc>
    <defs></defs>
    <g id="Page-1" stroke="none" stroke-width="1" fill="none" fill-rule="evenodd">
        <g id="首页-copy-6" transform="translate(-278.000000, -1032.000000)" fill="#8280E7">
            <g id="completeness" transform="translate(170.000000, 820.000000)">
                <g id="拼图" transform="translate(108.000000, 212.000000)">
                    <path d="M27.3632812,0 L2.63671875,0 C1.18283203,0 0,1.2616875 0,2.8125 L0,29.1875 C0,30.7383125 1.18283203,32 2.63671875,32 L27.3632812,32 C28.817168,32 30,30.7383125 30,29.1875 L30,2.8125 C30,1.2616875 28.817168,0 27.3632812,0 Z M1.7578125,2.8125 C1.7578125,2.2955625 2.15208984,1.875 2.63671875,1.875 L14.1210938,1.875 L14.1210938,6.625 C14.1210938,7.3298125 14.8170703,7.77 15.3930469,7.4635625 L15.6400195,7.331875 C16.483418,6.882 17.6044922,7.440625 17.6358984,8.4489375 C17.6694727,9.523 16.6266797,10.1944375 15.7642383,9.7345 L15.3931055,9.5365625 C14.8193555,9.2305 14.1210938,9.6698125 14.1210938,10.375 L14.1210938,15.0625 L10.9479492,15.0625 C11.1701953,13.1913125 9.89466797,11.3790625 8.07521484,11.3144375 C6.09984375,11.2449375 4.66335937,13.115875 4.94976562,15.0625 L1.7578125,15.0625 L1.7578125,2.8125 Z M14.1210938,30.125 L2.63671875,30.125 C2.15208984,30.125 1.7578125,29.7044375 1.7578125,29.1875 L1.7578125,16.9375 L6.2109375,16.9375 C6.86279297,16.9375 7.28912109,16.204 6.99708984,15.58075 L6.81146484,15.1848125 C6.37986328,14.2638125 7.01109375,13.1529375 8.01667969,13.188375 C8.96320312,13.2219375 9.48509766,14.4185625 9.06392578,15.3173125 L8.94046875,15.58075 C8.64785156,16.204875 9.07599609,16.9375 9.7265625,16.9375 L14.1210938,16.9375 L14.1210938,20.27975 C12.294668,19.973625 10.5414844,21.509125 10.6072852,23.6135625 C10.6679297,25.55525 12.3677344,26.91475 14.1210938,26.6778125 L14.1210938,30.125 Z M28.2421875,29.1875 C28.2421875,29.7044375 27.8479102,30.125 27.3632812,30.125 L15.8789062,30.125 L15.8789062,25.375 C15.8789062,24.67725 15.1887891,24.226 14.6069531,24.5364375 L14.3599805,24.668125 C13.5164648,25.117875 12.3955664,24.5594375 12.3641016,23.5510625 C12.3305859,22.4756875 13.3743164,21.8060625 14.2358203,22.2655625 L14.6069531,22.4635 C15.1910156,22.7750625 15.8789062,22.3204375 15.8789062,21.625 L15.8789062,16.93125 L19.0133789,16.93125 C18.899707,17.70325 19.0509961,18.5053125 19.4627344,19.190125 C20.0299219,20.1335625 20.9842969,20.6875 22.0317773,20.6875 C22.0669336,20.6875 22.1023242,20.686875 22.1377148,20.685625 C23.1395508,20.6500625 24.0519141,20.06575 24.5782617,19.1225 C24.9534375,18.4501875 25.0975195,17.682875 25.009043,16.9375625 L28.2421875,16.9375625 L28.2421875,29.1875 Z M28.2421875,15.0625 L23.7890625,15.0625 C23.1272461,15.0625 22.7164453,15.808 23.0029687,16.41925 L23.1264258,16.6826875 C23.3425195,17.143875 23.3201367,17.71125 23.0677734,18.163375 C22.9373438,18.397 22.6355859,18.791875 22.0791797,18.811625 C21.6084375,18.8284375 21.1945312,18.597375 20.9424609,18.178 C20.6936133,17.7640625 20.6680078,17.254625 20.8740234,16.8151875 L21.0595898,16.4193125 C21.3520312,15.7954375 20.9206055,15.0625 20.2734375,15.0625 L15.8789062,15.0625 L15.8789062,11.7190625 C16.0338867,11.745 16.1898633,11.759125 16.3456641,11.759125 C17.9895703,11.7590625 19.4530078,10.313875 19.3927148,8.386375 C19.3324805,6.45775 17.6471484,5.084875 15.8789062,5.32375 L15.8789062,1.875 L27.3632813,1.875 C27.8479102,1.875 28.2421875,2.2955625 28.2421875,2.8125 L28.2421875,15.0625 Z" id="Shape" fill-rule="nonzero"></path>
                    <rect id="Rectangle-6" x="2" y="0" width="26" height="2"></rect>
                    <rect id="Rectangle-6-Copy" x="2" y="30" width="26" height="2"></rect>
                    <rect id="Rectangle-6-Copy-2" transform="translate(1.000000, 16.000000) rotate(-90.000000) translate(-1.000000, -16.000000) " x="-12" y="15" width="26" height="2"></rect>
                    <rect id="Rectangle-6-Copy-3" transform="translate(29.000000, 16.000000) rotate(-90.000000) translate(-29.000000, -16.000000) " x="16" y="15" width="26" height="2"></rect>
                    <rect id="Rectangle-6-Copy-4" transform="translate(15.500000, 16.000000) rotate(-90.000000) translate(-15.500000, -16.000000) " x="9" y="15" width="13" height="2" rx="1"></rect>
                </g>
            </g>
        </g>
    </g>
</svg>