<?xml version="1.0" encoding="UTF-8"?>
<svg width="15px" height="14px" viewBox="0 0 15 14" version="1.1" xmlns="http://www.w3.org/2000/svg" xmlns:xlink="http://www.w3.org/1999/xlink">
    <!-- Generator: Sketch 51.3 (57544) - http://www.bohemiancoding.com/sketch -->
    <title>语言icon</title>
    <desc>Created with Sketch.</desc>
    <defs></defs>
    <g id="Page-1" stroke="none" stroke-width="1" fill="none" fill-rule="evenodd">
        <g id="首页-copy-6" transform="translate(-1163.000000, -30.000000)" fill="#FFFFFF" fill-rule="nonzero">
            <g id="语言icon" transform="translate(1163.828427, 30.000000)">
                <path d="M7,0 C10.8660371,0 14,3.13396289 14,7 C14,10.8660371 10.8660371,14 7,14 C3.13396289,14 0,10.8660371 0,7 C0,3.13396289 3.13396289,0 7,0 Z M9.32078711,7.58333789 L4.67919922,7.58333789 C4.80811584,10.5609629 5.90711543,12.8333379 6.99998633,12.8333379 C8.09257012,12.8333379 9.19186133,10.5609629 9.32078711,7.58333789 Z M3.511375,7.58333789 L1.19553711,7.58362955 C1.4096209,9.73787955 2.795625,11.5473796 4.70719922,12.3655046 C4.01974043,11.1932958 3.58515801,9.48966666 3.51136543,7.58362955 L3.511375,7.58333789 Z M12.8044629,7.58362955 L10.488625,7.58362955 C10.4148334,9.48996744 9.98025,11.1932917 9.29279121,12.3652174 C11.2043791,11.5476762 12.5903791,9.73787955 12.8044629,7.58362955 Z M4.70750957,1.63479166 L4.64275,1.66279166 C2.764125,2.49345787 1.407,4.28662955 1.19583789,6.41666666 L3.51167578,6.41666666 C3.5854674,4.51032877 4.02005078,2.80670377 4.70750957,1.63479166 Z M7,1.16666666 L6.95625,1.16783334 C5.87825,1.22733334 4.80666211,3.47899545 4.67921289,6.41667123 L9.32080078,6.41667123 C9.19188416,3.43933334 8.09288457,1.16667123 7.00001367,1.16667123 L7,1.16666666 Z M9.29278711,1.63450045 L9.33566211,1.70887545 C9.99832832,2.87787545 10.4162871,4.55000045 10.4883283,6.41666256 L12.8041662,6.41666256 C12.590375,4.26212545 11.2040783,2.45262545 9.2925041,1.63450045 L9.29278711,1.63450045 Z" id="Shape"></path>
            </g>
        </g>
    </g>
</svg>