<?xml version="1.0" encoding="UTF-8"?>
<svg width="33px" height="33px" viewBox="0 0 33 33" version="1.1" xmlns="http://www.w3.org/2000/svg" xmlns:xlink="http://www.w3.org/1999/xlink">
    <!-- Generator: Sketch 51.3 (57544) - http://www.bohemiancoding.com/sketch -->
    <title>推特</title>
    <desc>Created with Sketch.</desc>
    <defs></defs>
    <g id="Page-1" stroke="none" stroke-width="1" fill="none" fill-rule="evenodd">
        <g id="首页-copy-6" transform="translate(-1132.000000, -1336.000000)" fill-rule="nonzero">
            <g id="推特" transform="translate(1131.750000, 1335.250000)">
                <path d="M23.5,13.4180801 C23.0138328,13.6073408 22.4313695,13.7966015 21.9455418,13.8912492 C22.5283794,13.512932 22.9171641,12.9456246 23.2082251,12.2841125 C22.6261345,12.5673074 22.0429243,12.8509769 21.4600835,12.9456246 C20.9746284,12.378284 20.1977728,12 19.4209106,12 C17.8664176,12 16.6041086,13.3236713 16.6041086,14.8361636 C16.6041086,15.0256616 16.6041086,15.3090954 16.7011181,15.4981171 C14.3705165,15.4037076 12.3309792,14.2692976 10.9709068,12.4729301 C10.7768871,12.8509769 10.5832086,13.4180785 10.5832086,13.8912476 C10.5832086,14.8360225 10.9709068,15.7817799 11.7485094,16.2544794 C11.262309,16.2544794 10.3888162,16.0654228 10.3888162,15.8763995 C10.3888162,17.2942423 11.4572777,18.4289201 12.7190866,18.7125631 C12.5246611,18.8072105 12.2336315,18.8072105 12.0399861,18.8072105 C11.8451863,18.8072105 11.7485508,18.8072105 11.5537858,18.7125631 C11.9422309,19.8470069 12.9139543,20.6984617 14.1761639,20.6984617 C13.2045416,21.4541121 12.0399861,21.9268049 10.6798805,21.9268049 L10,21.9268049 C11.2623107,22.7777818 12.7190518,23.25 14.2735149,23.25 C19.4209185,23.25 22.236942,18.901384 22.236942,15.1202861 L22.236942,14.7417648 C22.6261342,14.5529803 23.1108423,13.9854008 23.4999997,13.4180934 L23.5,13.4180801 Z" id="Shape" fill="#1D2E44"></path>
                <circle id="Oval-2" stroke="#1D2E44" cx="16.75" cy="17.25" r="16"></circle>
            </g>
        </g>
    </g>
</svg>