<?xml version="1.0" encoding="UTF-8"?>
<svg width="20px" height="18px" viewBox="0 0 20 18" version="1.1" xmlns="http://www.w3.org/2000/svg" xmlns:xlink="http://www.w3.org/1999/xlink">
    <!-- Generator: Sketch 51.3 (57544) - http://www.bohemiancoding.com/sketch -->
    <title>Shape</title>
    <desc>Created with Sketch.</desc>
    <defs></defs>
    <g id="Page-1" stroke="none" stroke-width="1" fill="none" fill-rule="evenodd">
        <g id="首页-copy-6" transform="translate(-222.000000, -497.000000)" fill="#332B6D" fill-rule="nonzero">
            <g id="按钮2" transform="translate(181.000000, 482.000000)">
                <g id="购物" transform="translate(41.000000, 15.000000)">
                    <path d="M6.5812659,14.1437744 C6.82669027,14.1437744 7.06992335,14.1919828 7.29562611,14.2862082 C7.51475501,14.3738598 7.7163536,14.5053371 7.88508285,14.6740664 C8.05162082,14.8449869 8.18748073,15.0443942 8.27951487,15.2635231 C8.47892217,15.7193112 8.47892217,16.2364554 8.27951487,16.6922435 C8.08887273,17.1326926 7.73826649,17.4854901 7.29562611,17.6761323 C7.06992335,17.7769316 6.82669027,17.8273312 6.5812659,17.8273312 C6.32707638,17.8295225 6.07507814,17.7791229 5.84061022,17.6761323 C5.39796984,17.4854901 5.0473636,17.1326926 4.85672146,16.6922435 C4.65731305,16.2368761 4.65731327,15.7188904 4.85672148,15.2635231 C4.9509469,15.0443942 5.08461553,14.8449869 5.2511535,14.6740663 C5.41988275,14.5075284 5.61929005,14.376051 5.84061024,14.2862082 C6.07507816,14.1919827 6.32707639,14.1415831 6.58126592,14.1437744 Z M14.8555731,14.2204695 C15.1031888,14.2204695 15.3486132,14.2708692 15.5786985,14.3629033 C15.80221,14.4505549 16.0059999,14.5820322 16.1769204,14.7507615 C16.3434584,14.9194907 16.4793183,15.1210893 16.5713524,15.3402182 C16.7707597,15.7960063 16.7707597,16.3131505 16.5713524,16.7689386 C16.477127,16.9880675 16.3434584,17.1874748 16.1769204,17.3583954 C16.0059999,17.5271246 15.80221,17.6607933 15.5786985,17.7528274 C15.3508045,17.8514354 15.1053801,17.9040263 14.8555731,17.9040263 C14.6101488,17.9040263 14.3647244,17.8536267 14.1412129,17.7528274 C13.6985726,17.5621853 13.3479663,17.2093877 13.1573242,16.7689386 C12.9579158,16.3135712 12.957916,15.7955856 13.1573242,15.3402182 C13.2515496,15.1210893 13.3852182,14.921682 13.5517562,14.7507614 C13.7204855,14.5842235 13.9198928,14.4527461 14.1412129,14.3629033 C14.3669157,14.2686779 14.6101488,14.2204695 14.8555732,14.2204695 Z M19.4967232,3.43932768 C19.3915414,3.27498101 19.2381511,3.14569496 19.0584654,3.06899984 C18.7911282,2.95943539 18.5062606,2.90684446 18.2170105,2.9178009 L4.58719292,2.9178009 C4.54774971,2.65484622 4.50830651,2.40284799 4.46886331,2.1618062 L4.3921682,1.57234946 C4.37463788,1.42334181 4.34834242,1.27433415 4.31547308,1.12751779 L4.21467379,0.792250576 C4.17084801,0.654199369 4.10291805,0.527104607 4.0130752,0.41315758 C3.91008462,0.288254107 3.78079857,0.187454813 3.6339822,0.119524854 C3.43238362,0.0318732945 3.21325472,-0.00756990744 2.99412582,0.00119524854 L0.984713809,0.00119524854 C0.721759129,-0.00976119643 0.465378317,0.0844642303 0.270353597,0.261958639 C0.08847661,0.430687891 -0.0101313947,0.669538392 0.000825050249,0.917154048 C0.00301633924,1.06397041 0.0205466512,1.21078677 0.0512246971,1.35541185 C0.084094032,1.51318465 0.143258835,1.6643836 0.228719106,1.80024351 C0.314179376,1.94048601 0.425935115,2.06319819 0.557412455,2.1618062 C0.702037529,2.26260549 0.877340648,2.31519643 1.05264377,2.31300514 L2.54052899,2.31300514 C2.86045719,3.95647188 3.14094218,5.4465484 3.38198397,6.78761726 L3.70191216,8.46833592 L3.98897102,9.99785564 L4.20809992,11.1417085 C4.26945601,11.4441064 4.30670792,11.6369398 4.31766437,11.7224001 C4.36149015,11.9393377 4.41846366,12.1518927 4.48639362,12.3622565 C4.55651487,12.5813854 4.65293159,12.7895578 4.77126119,12.9845825 C4.88520822,13.1708421 5.03640716,13.3329975 5.21609286,13.4557097 C5.41550016,13.5784219 5.6455855,13.639778 5.88005342,13.6332041 L16.3259281,13.6332041 C16.6086043,13.670456 16.8890893,13.5630828 17.0753489,13.3461452 C17.2046349,13.1401641 17.2681823,12.8991223 17.2594172,12.6558892 C17.2594172,12.0949192 16.939489,11.8144342 16.3018239,11.8144342 L6.26133771,11.8144342 L5.98304401,10.0241511 L16.4201535,10.0241511 C16.7685684,10.0351076 17.1104095,9.9255431 17.3865119,9.71298807 C17.7020575,9.41497277 17.9277603,9.0314972 18.0351335,8.61076971 C18.1293589,8.35877147 18.2542624,8.01254781 18.4054613,7.5764813 L18.8590581,6.25513404 L19.2885508,5.03458607 L19.5493142,4.30269554 C19.5909487,4.16464434 19.6150528,4.02001926 19.6172441,3.8732029 C19.6172441,3.72200396 19.5756096,3.57080502 19.4967232,3.43932768 Z M7.6571888,8.10677324 C7.54981564,8.13745129 7.43586861,8.12430355 7.3372606,8.07171262 C7.2386526,8.01912168 7.16634006,7.92708754 7.13566202,7.81971438 L6.48923176,5.54077383 C6.42568438,5.30849719 6.56373559,5.06964669 6.79601222,5.00609931 C7.02828886,4.94255193 7.26713936,5.08060314 7.33068674,5.31287977 L7.97930828,7.59182033 C8.00779504,7.70138478 7.98807344,7.81971438 7.92890863,7.9161311 C7.86536125,8.0147391 7.76894454,8.08266906 7.6571888,8.10677324 Z M10.7337585,8.10677324 C10.6263854,8.13745129 10.5124384,8.12430355 10.4138304,8.07171262 C10.3152223,8.01912168 10.2429098,7.92708754 10.2122318,7.81971438 L9.56580151,5.54077383 C9.50225413,5.30849719 9.64030534,5.06964669 9.87258197,5.00609931 C10.1048586,4.94255193 10.3437091,5.08060314 10.4072565,5.31287977 L11.055878,7.59182033 C11.0843648,7.70138478 11.0646432,7.81971438 11.0054784,7.9161311 C10.941931,8.0147391 10.8455143,8.08266906 10.7337585,8.10677324 Z M13.4093224,8.10677324 C13.1858109,8.17251191 12.9535343,8.04322586 12.8877956,7.81971438 L12.2413654,5.54077383 C12.177818,5.30849719 12.3158692,5.06964669 12.5481458,5.00609931 C12.7804225,4.94255193 13.019273,5.08060314 13.0828203,5.31287977 L13.7314419,7.58305517 C13.7621199,7.69481091 13.7445896,7.81314051 13.6832335,7.91174852 C13.6196862,8.01254781 13.5210781,8.08266906 13.4093224,8.10677324 Z M16.082695,8.10677324 C15.8591835,8.17251191 15.6269069,8.04322586 15.5611682,7.81971438 L14.9125467,5.54077383 C14.8489993,5.30849719 14.9870505,5.06964669 15.2193271,5.00609931 C15.4516038,4.94255193 15.6904543,5.08060314 15.7540016,5.31287977 L16.4026232,7.59182033 C16.4311099,7.70138478 16.4113883,7.81971438 16.3522235,7.9161311 C16.2908674,8.0147391 16.1944507,8.08266906 16.082695,8.10677324 Z" id="Shape"></path>
                </g>
            </g>
        </g>
    </g>
</svg>